# xmcd
#
# Track frame offsets:
# 150
# 16213
# 33606
# 51253
# 70177
# 84025
# 101407
# 116319
# 132562
# 151067
# 169072
# 184517
# 198872
# 212965
# 232385
# 250432
# 265197
# 280872
# 298124
# 311030
# 325318
# 340693
#
# Disc length: 4758 seconds
#
#
# Revision: 0
# Processed by: cddbd v1.5.1PL2 Copyright (c) Steve Scherf et al.
# Submitted via: FreeRIP 2.945 
#
DISCID=40129416
DTITLE=GINO and GENO  - AS MELHORES 
DYEAR=2006
DGENRE=SERTANEJO
TTITLE0=Agita Ai
TTITLE1=Vou Beber Veneno
TTITLE2=Acidente de Amor
TTITLE3=Bebo pa Carai
TTITLE4=O que eu to fazendo aqui
TTITLE5=Mulher que não dá voa
TTITLE6=Galera do Chapeu
TTITLE7=Pinga na garganta
TTITLE8=Coração Cigano
TTITLE9=A mulher e a bebida
TTITLE10=Telefone no Ar
TTITLE11=Tche, Tche, Tche, Tcha,Tcha, Tcha
TTITLE12=Que bicho que é
TTITLE13=Apaixonado por você
TTITLE14=É Carro
TTITLE15=To ficando com ela
TTITLE16=Agora é só alegria
TTITLE17=O Gavião
TTITLE18=Foi uma noite só
TTITLE19=Cara de Boi
TTITLE20=Só Você
TTITLE21=Bate a botaq no chão
EXTD=
EXTT0=
EXTT1=
EXTT2=
EXTT3=
EXTT4=
EXTT5=
EXTT6=
EXTT7=
EXTT8=
EXTT9=
EXTT10=
EXTT11=
EXTT12=
EXTT13=
EXTT14=
EXTT15=
EXTT16=
EXTT17=
EXTT18=
EXTT19=
EXTT20=
EXTT21=
PLAYORDER=
